<svg xmlns="http://www.w3.org/2000/svg" width="48" height="48" viewBox="0 0 48 48">
  <path fill="#EA4335" d="M24 9.5c3.54 0 6.04 1.53 7.43 2.81l5.5-5.5C33.11 3.87 28.92 2 24 2 14.92 2 7.42 7.84 4.91 15.26l6.9 5.37C13.04 14.21 18.04 9.5 24 9.5z"/>
  <path fill="#4285F4" d="M46.5 24.5c0-1.64-.15-3.19-.43-4.69H24v9h12.66c-.55 2.9-2.2 5.36-4.69 7.03l7.24 5.63C43.76 37.26 46.5 31.36 46.5 24.5z"/>
  <path fill="#FBBC05" d="M11.81 28.13C10.73 25.71 10.73 23.03 11.81 20.61l-6.9-5.37C1.99 20.51 1.99 27.49 4.91 32.74l6.9-5.37z"/>
  <path fill="#34A853" d="M24 46c6.54 0 12.03-2.14 16.04-5.81l-7.24-5.63c-2.07 1.39-4.72 2.19-8.8 2.19-5.96 0-10.96-4.71-12.19-10.74l-6.9 5.37C7.42 40.16 14.92 46 24 46z"/>
  <path fill="none" d="M0 0h48v48H0z"/>
</svg>
